<svg id="New_Layer" data-name="New Layer" xmlns="http://www.w3.org/2000/svg" viewBox="0 0 597.5 679">
  <defs>
  <style>
    @keyframes shape-ani {
      from { stroke-dashoffset: 3050; }
      to { stroke-dashoffset: 0; }
    } 
    @keyframes eyebrow-ani {
      from { stroke-dashoffset: 200; }
      to { stroke-dashoffset: 0; }
    } 
    @keyframes eye-ani {
      from { stroke-dashoffset: 300; }
      to { stroke-dashoffset: 0; }
    } 
    @keyframes nose-ani {
      from { stroke-dashoffset: 200; }
      to { stroke-dashoffset: 0; }
    } 
    @keyframes mouth-ani {
      from { stroke-dashoffset: 500; }
      to { stroke-dashoffset: 0; }
    } 
    .cls-1 {
      fill: transparent;
      stroke: #fff;
      stroke: 5px;
      fill-rule:evenodd;
    }
    .shape {
      stroke-dasharray: 3050;
      stroke-dashoffset: 3050;
      animation: shape-ani 10s alternate forwards;
    }
    .eyebrow {
      stroke-dasharray: 200;
      stroke-dashoffset: 200;
      animation: eyebrow-ani 5s alternate forwards;
      animation-delay: 10s;
    }
    .eye {
      stroke-dasharray: 300;
      stroke-dashoffset: 300;
      animation: eye-ani 5s alternate forwards;
      animation-delay: 10s;
    }
    .nose {
      stroke-dasharray: 200;
      stroke-dashoffset: 200;
      animation: nose-ani 5s alternate forwards;
      animation-delay: 10s;
    }
    .mouth {
      stroke-dasharray: 500;
      stroke-dashoffset: 500;
      animation: mouth-ani 5s alternate forwards;
      animation-delay: 10s;
    }
  </style>
  </defs>
  <path class="cls-1 shape" d="M766.56,45c-.7.7-54.3,2.9-67.3,2.8-5.5,0-21.1-.4-34.7-.8-20.3-.6-26.7-.5-36,.8-6.2.9-16.5,1.8-22.8,2.1-17,.8-39.2,4.9-54.4,10-7.2,2.4-16.9,5.6-21.6,7.1a83.33,83.33,0,0,0-14.6,6.1,62.27,62.27,0,0,1-12.5,4.9c-10.1,2.4-28.7,9.3-36.9,13.7-17.7,9.5-35.7,24.1-39.9,32.3-2.6,4.9-2.6,5.3-2.3,24.5.3,22.5-.9,35.2-4.6,50-2.9,11.6-2.9,13-1.9,60.5.9,38.8,6.1,65.5,15.3,78.3,1.9,2.6,4.7,7,6.4,9.7,3.9,6.6,5.1,7.8,15.9,15.5,5,3.6,11.5,8.4,14.4,10.8s9.7,6.6,15.2,9.3c18.8,9.4,22.4,11.9,34.8,24.4,13.1,13.2,17.7,20.8,19.8,32.1,1.4,7.9,7.2,27.7,10.8,36.6,1.5,4,4.5,12.7,6.6,19.3a146.81,146.81,0,0,0,5.6,15.7,169.46,169.46,0,0,1,6.2,16.6l4.3,12.9-4,1.1c-2.3.6-7.6,3.1-11.9,5.6s-8.5,4.2-9.3,3.9c-1-.3-1.7.2-2,1.4s-2.6,3-5.2,4.2a196.19,196.19,0,0,0-32.2,20.7c-5.2,4.1-14,10.7-19.5,14.5-22.1,15.2-81.8,70.3-90.3,83.4a51.08,51.08,0,0,0-5.3,12c-1.1,3.8-3.4,11-5.1,16-3,8.8-4.8,18.8-3.2,17.2,1.4-1.3,5.4-12.5,8.9-24.8a139.69,139.69,0,0,1,5-15c4-7.8,22.9-27.9,37.5-39.9,3.6-2.9,10.3-9,15-13.5,12-11.7,29.6-26.3,39.8-33.3,4.8-3.3,13.2-9.6,18.7-13.9,8.7-7,22.8-16.3,24.4-16.3.3,0,2.4,5.3,4.5,11.8,9.4,28.3,28.6,67.4,41.6,84.7A285.31,285.31,0,0,1,599,688.5a179,179,0,0,0,10.2,15.4c2.5,3.2,5.1,7.5,5.7,9.5,2.1,6.6,4.8,10.1,7.8,10.1,4.2,0,6.7-2.4,20.9-20.8,12.6-16.3,18.4-22.2,21.6-22.2.8,0,3,1.8,4.9,4s4.1,4,5.1,4,4.2-1.3,7.4-2.9c6.2-3.1,25.8-16.8,28.1-19.5a5,5,0,0,1,3.5-1.6c2.3,0,10.8,4.9,12.1,6.9.3.6,3.8,2.8,7.7,4.7s8.9,4.8,11.1,6.2c4.3,2.9,24.9,11.3,28.1,11.6,4.5.3,8.1-17.8,9.1-45.9.3-9.4,1.3-23.5,2.2-31.5,2.9-27,1.7-46.5-3.8-63.8-.6-1.8-.9-3.5-.6-3.8s3.2,1.1,6.5,3.1c9.9,5.9,28.5,13.5,75.2,30.5,10.2,3.7,21,7.7,24,9s10.4,3.9,16.3,6.1c13.9,4.9,31.3,14,37.9,19.8,10.2,9,19,27.2,23.4,48.4,1.4,6.7,3.4,15.3,4.6,19.2,2.1,7.3,10,23.9,11.8,25,2.3,1.4,1.9-2.7-.8-8.1-4.8-9.5-8.1-19.9-11.7-36-3.3-14.9-8.1-28.5-13.2-37.4-4-6.8-11.2-14.9-15.2-16.9-2-1-8.3-4.3-14.1-7.4a214,214,0,0,0-23.1-10.1c-6.9-2.4-14.3-5.2-16.5-6.1s-13.1-5.1-24.4-9.2c-34.4-12.6-43-15.9-55.3-21.1-11.2-4.8-25-12.2-26.1-14.1-.3-.5.3-2,1.4-3.4a66.38,66.38,0,0,0,5.3-9.4l3.2-6.8.1-23c.1-21.6.2-23.7,2.8-34,6.4-25.4,6.1-20.9,4-57l-.6-11,4.1-10.5c3.6-9.1,5.2-11.8,12.2-20,11.2-13.2,23.8-25.9,34.4-34.7,8-6.6,31.8-31.5,39.4-41.2,4.3-5.5,5.7-8.8,7.6-17.9s14.6-46.9,19.4-57.4c4.2-9.1,4-11.5-.9-16.3-6-5.8-6.6-8.8-4-18.7,4.1-15.4,5-20.3,5-28.8,0-11.5-1.6-21.6-4.2-27-3.8-7.8-42.9-45.5-55.1-53.1-5.3-3.3-28.1-12.4-47.2-18.9-7.7-2.6-16.2-5.9-18.9-7.4-4.1-2.2-6.2-2.6-12.6-2.6C770.56,44.5,766.86,44.7,766.56,45Zm21.2,6.6c3.6,1.7,12.8,5.2,20.5,7.9,34.8,11.9,42.2,15.5,55.6,27.2,14.9,12.9,37.6,35.6,40.4,40.3,5.4,9.2,6,33.7,1.1,49.4-4.3,14.1-3.1,22.9,3.9,27.5,3.3,2.2,3.2,5.3-.4,12.4-3.9,7.8-17.5,47.9-19.5,57.6-.9,4.4-2.7,9.8-4,12-4.2,7.2-30.9,35.8-42.2,45.2-13.4,11.3-31.6,30.3-40.6,42.4-3.5,4.8-9.8,20.5-10.5,26.5l-.6,4.9-2.4-6.4c-4-10.7-5.4-16.9-6.2-28.6-.8-10.4-2.3-18-9.2-46.9-4.9-20.1-12.3-32.3-31.6-52.1-10.1-10.3-18.2-15.8-33-22.5-7-3.1-31.4-7.9-40.1-7.9-7,0-21.8,3.4-32.9,7.6-5.4,2-16.4,5.9-24.4,8.5-19.8,6.6-23.6,8.4-36.9,17.8-14,9.9-20.1,15.7-23.2,21.9-2.2,4.5-2.3,5.7-2.2,24.7,0,11,.2,27.9.5,37.5l.4,17.5-3.4,10.5c-1.8,5.8-4.6,15.2-6.2,21s-3.2,11.1-3.4,11.9c-.4.9-1.5,0-3.3-2.5-4.8-6.5-26-26.2-32-29.5-3.2-1.8-8.4-4.5-11.7-6.1-11.8-5.7-11.7-5.6-29.5-19.3-2.5-1.9-6.9-5.1-9.7-7-3.2-2.1-6.1-5.1-7.2-7.4a84.69,84.69,0,0,0-5.7-8.7c-11.4-14.8-16.6-38.8-17-76.9-.1-12.7-.5-28.6-.9-35.5-.7-11.7-.5-13.4,2.4-26.2a177.79,177.79,0,0,0,4.5-51.3c-.9-20.3-.4-21.9,9.4-31.5,8.3-8.1,21.9-17.9,31.8-22.8,7.6-3.8,30.5-12.2,35.3-12.9,2-.3,7.1-2.3,11.4-4.4,7.6-3.9,40.2-15.2,52.2-18.3,9.8-2.4,33.6-5.6,42.4-5.6a131.82,131.82,0,0,0,17.9-1.6c8.1-1.3,14.2-1.5,37.2-.9,15.1.4,30.9.8,35,.8,10.8.1,64.2-2.2,64.8-2.8.3-.3,4.2-.5,8.6-.5C780.16,48.5,782.16,48.9,787.76,51.6ZM682.06,245c19.7,3,25.4,5,41.2,14.3,11.6,6.8,32.1,29,39.8,43.2,3.9,7.2,7.7,18.9,10.2,32,1,4.7,2.6,11.9,3.6,16a133.85,133.85,0,0,1,2.9,19.5,107.39,107.39,0,0,0,8.5,35.2c2.9,7,3.5,9.5,3.5,15.8,0,5.8.4,7.7,1.5,8.1,2.7,1.1,1.9,13.4-1.9,29-5,20.4-5.8,27.3-5.4,47.7l.3,18.2-3.4,6.5a83.87,83.87,0,0,1-7,11c-11.2,14-20.3,24-27.5,30.1-4.5,3.8-12,10.2-16.9,14.4-15,12.9-24.3,16.5-43.7,17.2-15.6.6-29.9-1.2-42-5.4-9.8-3.3-11.3-4.1-26-13.8-6.9-4.5-15.2-9.6-18.5-11.3-7.6-4.1-17.5-12.9-20.9-18.6a46.81,46.81,0,0,1-4.1-10.8,86.5,86.5,0,0,0-3.4-11.4c-1.1-2.7-3.1-8.3-4.4-12.4s-3.7-10.4-5.2-13.9-3.7-9.8-5-14-4.4-13.3-6.9-20.3c-5.6-15.8-9.3-29.7-10.7-40.9-1.3-9.6-1.9-6.6,7.6-37.9,2.4-8,4.7-16.3,5.1-18.5s.1-18.6-.5-36.4c-1.4-39.9-1.7-38.6,10.1-49.6,4.5-4.1,8.6-7.5,9.2-7.5s3.8-2.3,7.1-5.1c7.6-6.3,14.8-9.7,34.9-16.4,8.9-2.9,18.8-6.5,22.1-7.8a107.69,107.69,0,0,1,32.8-7.6C670.56,243.6,676.36,244.2,682.06,245ZM573.76,545.3c0,.9,1.3,4.4,2.8,7.7,3.5,7.4,14.1,17.6,23.4,22.5,3.5,1.8,12.1,7.1,19.1,11.8,17.1,11.2,25.9,14.6,46.1,18.2,8.6,1.5,29,1.2,37-.5,15.8-3.4,32.6-15.2,58.9-41.8,5.9-6,10.7-10.6,10.7-10.2a61.52,61.52,0,0,1-2.5,6.5c-1.4,3.3-2.5,6.7-2.5,7.6,0,4.4-10.7,26.4-17.4,35.8-12.4,17.3-25.9,32.7-36.2,41.3-12,9.9-15.1,12.9-23.2,22.1l-6.3,7.2-2.6-3a19,19,0,0,0-5.8-4.5c-1.9-.7-7.7-4.1-13-7.4a159.68,159.68,0,0,0-17.8-9.6c-22.7-10-22.9-10.1-42.3-29.2-18.7-18.4-26.7-27.2-32.4-35.8-1.9-2.8-6.6-9.3-10.5-14.5-8.9-11.8-10-13.7-8.5-15.5,1.6-2,21-11.6,22.1-11A3.24,3.24,0,0,1,573.76,545.3Zm206.6,19.9c3.5,16.3,3.8,22.9,2,39.8-.9,8.2-2.3,27.2-3.2,42.2-1,19.7-2,29.4-3.4,34.9a81.63,81.63,0,0,1-2.4,8.2c-.5.4-7.5-2-17.6-6.1a110.92,110.92,0,0,1-13.4-7c-4.3-2.6-8.4-4.7-8.9-4.7s-2.8-1.5-5.1-3.4c-10.8-8.9-15-9.6-21.7-3.8-8,6.9-25,18.2-27.5,18.2-.4,0,2.4-3.3,6.2-7.3s9-9.8,11.7-12.9,9.9-10.1,16.3-15.4a207.64,207.64,0,0,0,33.9-36.9c3.1-4.4,7-9.8,8.6-12,3.3-4.6,9.1-16.9,12.1-26,1.1-3.3,3-8.8,4.4-12.3,2.6-6.8,3-10.2,1.3-10.2-.8,0-.7-.6.2-1.6,1.2-1.5,1.5-1.3,2.7,1.7A121,121,0,0,1,780.36,565.2Zm-231.5-5c1.3,2.1,5.1,7.4,8.4,11.8s7.6,10.2,9.5,13c4.7,7,21.6,27,24.3,28.8,1.2.8,7.9,7.1,14.9,14,13.5,13.4,12.6,12.8,36.6,23.7a186.3,186.3,0,0,1,18.5,10,125.4,125.4,0,0,0,12.9,7.3,13.22,13.22,0,0,1,5.3,4.1c1.6,2.4,1.6,2.7-1.5,7l-3.2,4.4-3.4-3.4c-5.4-5.3-8.4-4.8-15.9,2.8-3.3,3.5-10,11.5-14.7,17.8-10.3,13.6-15.2,19-17.1,19s-3.2-1.7-5.6-7.8a49.2,49.2,0,0,0-6.2-10.4,173.14,173.14,0,0,1-9.6-14.7,244.17,244.17,0,0,0-17.9-26.6c-1.8-2.2-6.8-9.8-11.3-16.9-8.6-13.8-24.7-49-31.6-69.1-2-6.1-4.1-11.4-4.6-12s1-2,4.3-3.7c2.9-1.5,5.4-2.7,5.5-2.8A33.34,33.34,0,0,1,548.86,560.2Z" transform="translate(-383.77 -44.5)"/>
  
  <path class="cls-1 eyebrow" d="M708.36,315.6c-11,.9-13.6,1.6-13.6,3.3,0,.7-1.1,1.8-2.4,2.4-8.8,4-1.4,10.9,7.7,7.3,3.5-1.4,17.4-1.5,18.2-.1,1.3,2.1,22.2,6.5,24,5,1.3-1.1,7.2.3,12.7,3.1,4.4,2.3,5.8,2.4,5.8.5a2.34,2.34,0,0,1,1.6-2c2.2-.9,1.6-1.8-4.3-6.5-2.9-2.3-5.3-4.7-5.3-5.5,0-4.6-11.9-8.4-23.5-7.4a52.42,52.42,0,0,1-7-.4A84.56,84.56,0,0,0,708.36,315.6Zm35.4,9.5c0,.2-.7.4-1.5.4s-1.5-.4-1.5-1,.7-.7,1.5-.4S743.76,324.9,743.76,325.1Z" transform="translate(-383.77 -44.5)"/>
  <path class="cls-1 eyebrow" d="M605.76,321a4.29,4.29,0,0,1-2.2,1.5c-.6,0-4.8,1.8-9.5,4s-8.9,3.8-9.3,3.5c-1.3-.8-16,14-16,16,0,1-1.1,3.3-2.5,5.1-2.9,3.7-3.2,5.4-1,5.4,1.9,0,1.9,1.4,0,3-2.4,2-.9,2.7,4.7,2.2,4.2-.4,6.9-1.6,14.2-6.4,9-5.9,11-7.8,8.4-7.8-1.6,0,6-7.1,9.3-8.7,7.7-3.6,17.7-6.4,24-6.5,4.9-.1,6.9-.5,6.9-1.4a2.12,2.12,0,0,0-1.7-1.7c-1.5-.4-1.5-.6.5-1.2,3.6-1.2,2.6-3.1-3-5.9-4.3-2.2-6.6-2.6-13.4-2.6C609.16,319.5,606.66,319.9,605.76,321Zm-.7,7a87.79,87.79,0,0,0-10,5.5l-4.8,3.2,4.5-4.1a33.75,33.75,0,0,1,8.5-5.5C609.56,324.8,610.76,325.4,605.06,328Z" transform="translate(-383.77 -44.5)"/>

  <path class="cls-1 eye" d="M721.26,358.1c-13.1,3.2-20.5,9.7-20.5,18.1v3.9l8.1,1.8c4.9,1.1,9.8,1.6,12.3,1.3,7.6-1.1,18.2-5.7,22.8-9.8,3.9-3.7,4.4-3.9,6.7-2.7a33.18,33.18,0,0,1,5.3,4.1c2.7,2.8,4.8,2.9,4.8.2,0-1.8-6.4-7-11.5-9.4C734.46,358.6,727.26,356.7,721.26,358.1Zm16.9,5.9c3,1.4,5.7,2.9,6,3.4.9,1.4-4.5,6.2-9.2,8.3-2.4,1.1-4.5,1.8-4.7,1.6s0-2.1.5-4.2c1-4.6,0-7.8-3.2-10-2.2-1.6-2.2-1.6,1.4-1.6A27.13,27.13,0,0,1,738.16,364ZM712,372c-.2,4.1-.7,7.5-1.1,7.5a23,23,0,0,1-4-1.1c-4.3-1.5-4.1-4.8.5-9.9,2-2.2,3.9-4,4.3-4S712.16,367.9,712,372Z" transform="translate(-383.77 -44.5)"/>
  <path class="cls-1 eye" d="M605.06,371.9c-6,2-9.9,4.4-21.5,13.7s-17.8,14.9-17.8,16.1c0,2.1,3.7.2,11.2-5.7,4.5-3.6,8.9-6.5,9.8-6.5s3.5,1.4,6,3c6.4,4.3,10.7,5.3,17.1,3.9a46.11,46.11,0,0,0,8.9-3,15,15,0,0,1,4.6-1.9,35.54,35.54,0,0,0,6.8-2.5c6.4-2.8,7-4.7,3.2-9.2C627.46,372.8,614,369,605.06,371.9Zm20.3,5.7c3,1.7,5.9,3.9,6.4,5,1,1.7.5,2.2-3.5,3.9a30,30,0,0,1-5.8,2,21.64,21.64,0,0,0-5.2,2.1l-4,2.2,3.3-3.1c2.6-2.4,3.2-3.8,3.2-7,0-2.3-.4-4.4-1-4.7-1.4-.8-1.3-3.5.1-3.5C619.46,374.5,622.46,375.9,625.36,377.6ZM600,378.7a13.61,13.61,0,0,0-2.7,5c-.6,2.3-.2,3.3,2.5,5.8,1.8,1.6,3.8,3,4.6,3a1.27,1.27,0,0,1,1.4,1.1c0,1.7-4.8.2-10.7-3.3-2.8-1.7-4.9-3.6-4.6-4.2.6-1.3,10.1-9.6,11-9.6C601.86,376.5,601.16,377.5,600,378.7Z" transform="translate(-383.77 -44.5)"/>
  <g>
    <path class="cls-1 nose" d="M695.76,412.7c.1,2.2,3.9,9.8,6.8,13.7a95.56,95.56,0,0,1,6.6,11c3.3,6.4,3.8,8.1,3.4,12.3-.4,3.2-1.3,5.7-2.8,7.3-2.1,2.2-3.2,2.5-9.2,2.5-5.4,0-6.8.3-6.8,1.5s1.4,1.5,6.5,1.5c8,0,12.1-1.9,14.1-6.5,2.6-6.4,1.8-11.8-3.2-21.3a111.31,111.31,0,0,0-6.9-11.4,27.83,27.83,0,0,1-4-7.3C698.66,411.9,695.76,409.7,695.76,412.7Z" transform="translate(-383.77 -44.5)"/>
    <path class="cls-1 nose" d="M645.56,426.3c-8.2,17-10.1,22.3-10.2,28.2-.1,6.6,2.4,10.8,7.9,13.5,4.5,2.1,14.5,3.3,14.5,1.7,0-.7-1.2-1.4-2.7-1.8-5.5-1.2-5.5-1.1-3.9-4.1a18.33,18.33,0,0,1,3.4-4.6c2.7-2.5,8.5-2.6,11.1-.3,1.4,1.3,2.1,1.4,2.7.5,1-1.7-4.1-5.9-7.2-5.9-4.8,0-9.1,2.7-11.9,7.4-1.5,2.5-3.2,4.6-3.8,4.6s-2.4-1.2-3.9-2.7c-5.4-5.1-3.2-15.9,7.3-36.4,4.2-8,4.6-9.9,2.7-9.9C650.86,416.5,648.16,420.9,645.56,426.3Z" transform="translate(-383.77 -44.5)"/>
    <path class="cls-1 nose" d="M693.76,452a11,11,0,0,0-4,4,11.79,11.79,0,0,1-4.2,4.1c-3.3,1.7-3.6,3.4-.6,3.4,1.3,0,3.9-2,6.7-5,5.4-5.9,9.5-6.8,11.1-2.5.5,1.4,1.4,2.5,2,2.5,1.4,0,1.3-5.3-.2-6.8S696.86,450.2,693.76,452Z" transform="translate(-383.77 -44.5)"/>
  </g>
  <g>
    <path class="cls-1 mouth" d="M690.76,495.7c-1.4.7-7.7,1.4-14,1.8-10.2.5-12.1.9-16.9,3.5a64.9,64.9,0,0,0-12,9.9c-7.1,7.3-11,9.6-16.6,9.6-2.4,0-3.5.4-3.5,1.5s1,1.5,3.4,1.5c6,0,10-2.2,18.1-10,12.3-11.7,13.9-12.5,27-12.6,8.2,0,12-.5,15-1.8s5.7-1.7,11.6-1.4c6.4.4,8.4,1,13.5,4,7.2,4.3,19.2,9.3,20.1,8.5,1.1-1.2-1.7-3.4-6.5-5.2-2.6-1-8.4-3.8-13-6.2-7.7-4-8.7-4.3-16-4.2C696.76,494.6,692.16,495.1,690.76,495.7Z" transform="translate(-383.77 -44.5)"/>
    <path class="cls-1 mouth" d="M693.26,510.2c-2.6,1-8.7,1.8-17.1,2.2l-13.1.7-6.9,4.2c-5.5,3.3-13.9,6.2-18,6.2-.2,0-.4.4-.4.9,0,2.4,17,2.8,26.5.6a141.68,141.68,0,0,1,16.6-2.4c6.1-.6,12.9-1.9,15.9-3.1,4.9-1.9,11.8-3.3,23.8-4.7,2.8-.3,5.2-1.1,5.2-1.7,0-1.4-12.8-3.8-22-4.2C699.46,508.7,695.86,509.1,693.26,510.2Zm16.5,2.3c1.1.7.7,1-1.8,1-1.8,0-6.5,1.1-10.5,2.5-4.4,1.6-12.1,3.1-19.7,4a137.52,137.52,0,0,0-16.3,2.5,19.85,19.85,0,0,1-6.5.8c-2.5-.3-2.2-.6,3.3-3.8,5.8-3.4,6.5-3.5,19-4.1,8.1-.4,14.5-1.2,17-2.2C698.76,511.4,707.46,511,709.76,512.5Z" transform="translate(-383.77 -44.5)"/>
    <path class="cls-1 mouth" d="M730.76,515.9c-2,1.3-4.8,4.7-6.3,7.5-6.2,11.3-12.2,14.1-29.7,13.9-7.6-.1-11.7.4-15,1.6-11.3,4.3-22.8,3-33.7-3.8-6.1-3.8-14.9-7.6-17.5-7.6-.4,0-.8.6-.8,1.4s2.3,2.1,5.2,3.1a43.18,43.18,0,0,1,9.4,4.6c11.7,8,21.5,9.5,37.5,5.5,8.8-2.1,12-2.5,18.1-2,9,.8,17.2-1.3,22-5.5a43.67,43.67,0,0,0,6.7-8.9c2.2-3.9,4.6-6.7,6.7-7.8,3.4-1.8,4.6-4.4,2.1-4.4C734.76,513.5,732.66,514.6,730.76,515.9Z" transform="translate(-383.77 -44.5)"/>
  </g>
</svg>